<svg width="1024" height="1024" viewBox="0 0 1024 1024" fill="none" xmlns="http://www.w3.org/2000/svg">
<path d="M307.174 654.415L307.648 654.245C323.177 619.165 333.879 596.755 362.603 569.315C375.691 556.58 390.393 545.62 406.334 536.71C410.036 534.64 421.046 530.545 422.336 527.51C421.614 523.78 414.452 509.425 411.01 506.47C408.373 504.96 402.594 506.14 399.973 506.505C381.054 509.205 364.931 490.339 374.007 472.235C385.887 448.533 423.134 455.972 423.486 482.864C423.618 492.966 431.689 501.41 435.937 510.19C437.69 513.815 438.74 516.46 439.973 520.32C449.611 518.24 458.742 514.705 468.636 512.715C509.52 504.5 548.06 506.695 587.29 520.64C589.52 514.655 594 506.115 597.21 500.695C602.555 491.678 604.755 487.957 605.405 477.233C605.725 471.905 612.38 465.134 616.89 462.213C622.87 458.343 630.93 457.157 637.95 459.046C650.765 462.123 660.125 476.702 655.55 489.659C649.795 505.97 633.64 509.64 618.76 505.255C612.75 510.705 608.355 520.22 605.34 527.595C608.325 529.66 611.21 530.975 614.485 532.6C656.755 553.585 691.795 590.81 711.385 633.665C714.625 640.76 717.25 648.02 720.695 654.855L721.08 654.85L721.435 652.435C721.345 658.58 725.55 674.945 727.33 681.795C727.925 695.265 730.3 709.29 730.795 723.85C736.28 727.845 743.105 730.655 748.18 734.36C766.545 747.775 785.87 765.825 794.59 787.065C799.42 798.82 799.315 812.03 794.3 823.71C790.22 833.455 782.305 841.09 772.415 844.815C760.51 849.4 741.515 848.915 729.29 845.48C719.63 842.765 708.965 837.73 699.73 833.58C691.94 848.645 680.16 862.55 667.73 874.095C664.78 876.835 661.77 879.54 659.16 882.605L658.685 883.17C657.955 886.58 657.945 890.215 657.56 893.69C653.965 926.19 644.39 974.94 606.39 982.67C594.14 985.21 581.385 982.75 570.955 975.85C554.87 965.205 550.925 950.59 547.245 932.955C539.415 932.755 531.58 934.125 524.37 934.355C513.845 934.69 491.379 934.355 481.599 932.045C477.888 945.265 477.109 954.095 468.085 966.05C460.798 975.7 449.411 982.34 437.319 983.71C424.429 985.075 411.517 981.345 401.339 973.32C376.793 953.685 372.936 912.57 369.878 883.665C364.534 877.975 357.939 872.39 352.613 866.61C342.973 856.15 334.981 845.96 327.712 833.795C306.155 845.385 284.32 852.04 259.744 845.795C249.493 843.2 240.704 836.615 235.334 827.505C229.726 818.02 228.198 802.83 231.472 792.34C240.012 764.98 263.376 744.845 286.787 729.86C289.973 727.82 293.668 726.185 297.016 724.24C296.949 706.935 298.4 698.24 300.781 681.39C302.103 675.26 307.024 659.075 307.174 654.415Z" fill="#4D2D2C"/>
<path d="M446.442 540.41C478.22 526.815 526.855 525.49 560.445 533.435C566.87 534.955 574.62 537.955 581.175 539.875C580.07 544.665 567.94 583.41 591.89 572.925C596.1 571.085 597.04 553.77 598.635 547.59C647.18 571.12 682.28 608.655 699.465 660.055C716.07 709.705 711.51 764.9 688.245 811.625C665.675 856.945 625.285 887.835 577.93 903.8C526.79 920.94 471.518 916.595 423.295 892.945C375.348 869.435 345.076 833.025 328.194 782.42C312.317 734.83 316.424 681.275 338.258 636.225C357.211 597.115 389.854 566.855 428.612 547.755C429.706 552.62 431.08 558.845 431.676 563.805C432.465 570.015 434.922 575.165 442.296 574.465C444.823 574.23 447.14 572.965 448.699 570.96C452.31 566.265 450.607 560.47 449.717 554.96C448.749 550.155 447.845 545.09 446.442 540.41Z" fill="#D0413F"/>
<path d="M449.716 554.96C459.482 550.095 474.905 546.08 485.456 549.55C500.06 554.355 493.637 566.05 484.066 572.06C474.326 578.175 464.333 581.055 454.092 586.025C441.923 592.69 430.024 600.045 417.163 605.355C411.099 607.86 401.879 611.075 395.48 608.43C390.24 606.265 390.869 598.655 393.53 594.67C402.455 581.305 417.974 571.46 431.675 563.805C432.465 570.015 434.922 575.165 442.295 574.465C444.822 574.23 447.14 572.965 448.698 570.96C452.31 566.265 450.607 560.47 449.716 554.96Z" fill="#EC9F9A"/>
<path d="M594.855 648.645C628.475 648.1 656.09 675.07 656.34 708.695C656.59 742.315 629.375 769.69 595.75 769.64C562.545 769.595 535.585 742.79 535.34 709.585C535.095 676.38 561.655 649.185 594.855 648.645Z" fill="#BB3435"/>
<path d="M589.825 652.705C618.775 649.62 644.755 670.555 647.9 699.5C651.045 728.44 630.17 754.465 601.235 757.675C572.21 760.895 546.085 739.94 542.93 710.905C539.775 681.875 560.79 655.795 589.825 652.705Z" fill="#40B2AC"/>
<path d="M590.3 665.705C612.3 663.09 632.23 678.88 634.71 700.9C637.19 722.915 621.275 742.745 599.24 745.085C577.4 747.41 557.785 731.665 555.325 709.84C552.865 688.015 568.49 668.3 590.3 665.705Z" fill="#95E1CF"/>
<path d="M572.525 676.55C574.92 676.3 578.23 676 580.47 676.925C582.96 677.935 584.91 679.955 585.825 682.485C588.885 690.705 582.65 700.39 574.965 703.495C572.325 703.905 570.205 703.905 567.55 703.975C554 696.35 561.23 682.35 572.525 676.55Z" fill="#DBF6E8"/>
<path d="M422.956 652.745C451.914 649.845 477.755 670.93 480.727 699.88C483.698 728.835 462.678 754.725 433.734 757.77C404.688 760.825 378.682 739.715 375.7 710.66C372.718 681.605 393.894 655.655 422.956 652.745Z" fill="#40B2AC"/>
<path d="M422.413 665C444.484 662.09 464.709 677.695 467.491 699.78C470.273 721.87 454.549 742.005 432.445 744.655C410.523 747.285 390.591 731.72 387.832 709.815C385.073 687.91 400.523 667.885 422.413 665Z" fill="#95E1CF"/>
<path d="M407.917 674.5C418.404 676.045 421.114 683.145 417.008 692.88C414.714 698.32 409.806 700.875 404.483 702.73C400.211 702.825 399.688 702.565 395.953 700.395C388.363 689.33 396.888 678.45 407.917 674.5Z" fill="#DBF6E8"/>
<path d="M285.828 754.105C288.44 751.005 294.715 747.48 298.456 745.985C301.094 765.055 303.934 780.765 310.948 799.06C313.117 805.66 315.288 810.18 318.169 816.47C302.403 826.28 261.084 839.245 251.854 815.135L251.649 814.67C245.298 801.475 255.425 785.59 263.284 775.49C269.72 767.215 277.689 760.6 285.828 754.105Z" fill="#D0413F"/>
<path d="M310.948 799.06C313.117 805.66 315.288 810.18 318.169 816.47C302.403 826.28 261.084 839.245 251.854 815.135C253.052 815.475 254.524 816.375 255.743 816.58C273.517 819.555 299.338 813.235 310.948 799.06Z" fill="#BB3435"/>
<path d="M285.828 754.105C285.615 756.27 277.68 765.37 275.921 767.91C268.235 779.01 259.902 789.345 255.962 802.49C254.831 806.265 253.659 811.405 251.649 814.67C245.298 801.475 255.425 785.59 263.284 775.49C269.72 767.215 277.689 760.6 285.828 754.105Z" fill="#EC9F9A"/>
<path d="M709.6 816.32C720.82 795.41 727.1 769.26 729.625 745.73C731.55 746.735 732.745 747.43 734.55 748.625C736.625 749.955 745.565 756.55 746.765 758.25C761.015 769.995 784.505 793.655 776.36 814.45L776.05 815.535C765.395 839.245 725.855 826.175 709.6 816.32Z" fill="#D0413F"/>
<path d="M709.6 816.32C720.82 795.41 727.1 769.26 729.625 745.73C731.55 746.735 732.745 747.43 734.55 748.625C732.775 752.25 734.795 766.985 734.22 771.655C733.07 781.005 731.585 791.675 729.32 800.71C734.695 809.16 738.115 814.135 748.885 816.53C756.275 818.175 768.365 816.585 776.05 815.535C765.395 839.245 725.855 826.175 709.6 816.32Z" fill="#BB3435"/>
<path d="M746.765 758.25C761.015 769.995 784.505 793.655 776.36 814.45C770.605 810.245 773.085 804.52 770.67 797.7C767.16 787.8 761.55 779.04 755.79 770.36C753.925 767.54 747.275 760.01 746.765 758.25Z" fill="#EC9F9A"/>
<path d="M391.218 899.255C407.207 908.53 420.775 916.805 438.548 922.715C446.028 925.435 455.143 927.185 461.582 929.9C458.997 938.355 456.536 948.18 451.356 955.405C443.062 966.98 420.75 967.46 411.925 956.3C398.615 943.085 392.655 917.25 391.218 899.255Z" fill="#D0413F"/>
<path d="M438.548 922.715C446.028 925.435 455.143 927.185 461.582 929.9C458.997 938.355 456.536 948.18 451.356 955.405C443.062 966.98 420.75 967.46 411.925 956.3C416.62 956.545 420.206 956.63 424.9 956.5C439.061 947.85 438.404 937.305 438.548 922.715Z" fill="#BB3435"/>
<path d="M636.3 898.915C636.8 900.52 636.415 905.4 636.075 907.245C632.68 925.435 627.985 946.575 612.63 958.53C602.65 966.3 583.695 965.27 576.075 954.705C569.82 944.885 569.015 940.46 566.13 929.325C587.155 926.21 618.575 910.725 636.3 898.915Z" fill="#BB3435"/>
<path d="M628.23 474.084C629.1 474.046 629.975 474.031 630.845 474.039C635.135 474.117 636.91 476.411 639.69 479.305C639.67 481.654 639.545 484.168 639.47 486.532C637.445 489.78 635.855 491.355 632.22 492.269C629.89 492.44 627.59 492.445 625.5 491.298C623.065 489.974 621.305 487.676 620.665 484.978C619.34 479.275 622.91 475.377 628.23 474.084Z" fill="#D0413F"/>
<path d="M395.601 474.052C401.385 473.705 403.67 475.378 407.272 479.744C407.281 486.927 407.551 488.879 400.606 492.173C394.734 492.738 392.347 491.424 388.516 487.192C388.225 480.382 388.464 476.529 395.601 474.052Z" fill="#D0413F"/>
<path d="M651.34 294.542C655.855 297.499 664.405 305.923 668.885 309.913L710.13 347.101C736.175 370.534 762.105 394.099 787.915 417.794C800.905 429.597 814.035 441.216 826.95 453.125C832.435 458.179 831.345 464.645 830.07 471.235C827.62 482.006 824.735 492.763 822.03 503.495L806.645 564.38L792.66 620.56C790.565 628.935 788.58 637.33 786.365 645.67C785.105 650.41 783.115 653.305 778.57 655.43C771.98 659.08 764.83 662.48 758.125 665.975C755.37 667.41 745.025 673.06 742.435 673.795C737.515 676.5 732.115 679.055 727.33 681.795C725.55 674.945 721.345 658.58 721.435 652.435C721.54 649.34 722.885 642.195 723.435 638.83C724.71 631.09 725.92 623.34 727.075 615.58L738.995 534.01C740.3 525.195 743.985 503.22 743.455 495.099C740.19 490.505 720.815 474.445 714.995 469.335L676.29 435.437C655.685 417.302 635.11 398.956 614.58 380.738C595.17 363.511 595.17 366.162 612.235 345.778C617.945 337.515 632.375 317.982 639.08 310.818C642.56 305.841 647.465 299.172 651.34 294.542Z" fill="#DBA44C"/>
<path d="M612.235 345.778C615.27 349.145 620.645 352.956 624.27 355.904C630.675 361.144 637.015 366.459 643.295 371.849L733.135 449.084C743.305 457.878 755.2 466.691 764.245 476.684C766.235 478.881 769.045 485.858 768.675 488.786C766.695 504.445 763.86 521.22 761.35 536.735C755.34 571.905 749.72 607.145 744.485 642.435C743.8 647.11 739.9 670.125 740.395 673.73L742.435 673.795C737.515 676.5 732.115 679.055 727.33 681.795C725.55 674.945 721.345 658.58 721.435 652.435C721.54 649.34 722.885 642.195 723.435 638.83C724.71 631.09 725.92 623.34 727.075 615.58L738.995 534.01C740.3 525.195 743.985 503.22 743.455 495.099C740.19 490.505 720.815 474.445 714.995 469.335L676.29 435.437C655.685 417.302 635.11 398.956 614.58 380.738C595.17 363.511 595.17 366.162 612.235 345.778Z" fill="#B88536"/>
<path d="M651.34 294.542C655.855 297.499 664.405 305.923 668.885 309.913L710.13 347.101C736.175 370.534 762.105 394.099 787.915 417.794C800.905 429.597 814.035 441.216 826.95 453.125C832.435 458.179 831.345 464.645 830.07 471.235C827.62 482.006 824.735 492.763 822.03 503.495L806.645 564.38L792.66 620.56C790.565 628.935 788.58 637.33 786.365 645.67C785.105 650.41 783.115 653.305 778.57 655.43C778.845 652.525 781.145 642.285 781.755 638.6C783.915 625.56 786.35 612.53 788.85 599.56C791.925 582.765 794.91 565.95 797.81 549.125L805.99 504.85C807.195 497.939 808.48 488.534 810.18 481.804C815.71 459.926 804.515 453.71 789.385 440.58L764.86 419.377C743.335 400.596 721.65 382 699.805 363.592C682.685 349.093 665.815 333.926 648.78 319.311C645.585 316.571 642.37 313.273 639.08 310.818C642.56 305.841 647.465 299.172 651.34 294.542Z" fill="#F4DC99"/>
<path d="M248.877 654.99C244.885 652.58 243.421 650.4 242.254 645.945C235.989 622.035 230.33 597.95 224.242 574C218.188 551.06 212.326 528.075 206.656 505.04C203.798 493.689 201.074 482.078 198.168 470.764C193.91 454.191 206.476 448.247 217.522 438.196L257.508 402.081L331.165 335.138C346.13 321.365 361.273 307.789 376.592 294.411C380.309 298.678 385.867 306.664 389.407 311.433C397.844 322.588 407.954 334.723 415.918 345.882C417.554 348.114 419.334 350.39 420.98 352.604C427.004 360.711 432.806 363.791 423.482 372.207C413.282 381.413 402.952 390.318 392.753 399.439L315.622 467.536C307.951 474.257 290.602 488.289 284.563 495.445C284.137 502.625 287.873 523.965 289.055 532.515L301.444 616.945L305.204 642.09C305.766 645.74 306.839 650.9 307.175 654.415C307.024 659.075 302.103 675.26 300.782 681.39C296.802 679.75 284.228 673.025 280.565 670.765C270.705 666.31 258.798 659.905 248.877 654.99Z" fill="#DBA44C"/>
<path d="M415.917 345.882C417.554 348.114 419.333 350.389 420.979 352.604C427.003 360.71 432.806 363.791 423.482 372.206C413.282 381.412 402.952 390.318 392.752 399.439L315.622 467.536C307.95 474.257 290.602 488.289 284.562 495.445C284.136 502.625 287.873 523.965 289.055 532.515L301.443 616.945L305.203 642.09C305.766 645.74 306.839 650.9 307.174 654.415C307.024 659.075 302.103 675.26 300.781 681.39C296.802 679.75 284.228 673.025 280.565 670.765C283.125 670.72 285.719 672.48 288.135 673.725C287.822 661.6 283.461 639.28 281.563 627.105L266.382 533.015L262.135 507C259.198 488.535 256.478 482.065 272.186 468.509C290.965 452.305 310.063 436.462 328.974 420.427L384.474 372.795C393.056 365.383 408.363 353.692 415.572 346.244L415.917 345.882Z" fill="#B88536"/>
<path d="M248.877 654.99C244.885 652.58 243.421 650.4 242.254 645.945C235.989 622.035 230.33 597.95 224.242 574C218.188 551.06 212.326 528.075 206.656 505.04C203.798 493.689 201.074 482.078 198.168 470.764C193.91 454.191 206.476 448.247 217.522 438.196L257.508 402.081L331.165 335.138C346.13 321.365 361.273 307.789 376.592 294.411C380.309 298.678 385.867 306.664 389.407 311.433C383.774 315.445 376.622 322.481 371.091 327.15L321.563 369.59L262.98 419.966L239.455 440.417C228.73 449.787 214.675 458.819 217.012 474.44C218.672 485.532 221.015 496.853 222.966 507.905L236.289 581.655C238.526 593.88 240.274 606.985 242.68 619.22C243.619 623.99 249.262 651.52 248.877 654.99Z" fill="#F4DC99"/>
<path d="M475.18 199.485C490.838 198.348 509.685 199.461 525.635 199.038C529.485 198.936 550.27 198.882 553.05 199.359L553.11 199.968C553.71 206.294 553.525 216.124 553.4 222.615C554.88 223.451 555.395 223.349 557.07 223.421C569.04 223.657 581.01 223.757 592.98 223.723C597.315 223.72 602.085 223.79 606.355 223.715C625.195 223.382 625.69 229.157 625.865 246.064C625.91 251.907 626.62 274.147 625.575 278.381C624.275 283.617 602.395 309.936 598.725 314.693L574.42 346.494C570.99 350.939 564.38 360.386 560.26 363.316C552.915 364.811 539.575 363.875 531.505 364.175C518.34 364.665 504.775 364.388 491.575 364.115C484.955 363.978 475.459 364.427 469.104 363.871C467.08 362.685 465.965 361.856 464.499 360.013C450.963 342.992 437.913 325.395 424.581 308.176C420.261 302.579 415.904 297.011 411.511 291.472C408.856 288.171 404.578 283.348 402.514 279.841C402.322 273.643 401.555 254.168 402.452 248.548C402.074 242.542 401.22 232.708 405.376 227.887C410.523 221.915 423.318 223.979 431.095 223.839C445.813 223.575 460.695 224.356 475.505 223.439C474.406 220.002 474.545 203.481 475.18 199.485Z" fill="#DBA44C"/>
<path d="M475.181 199.485C490.839 198.348 509.685 199.461 525.635 199.038C529.485 198.936 550.27 198.882 553.05 199.359L553.11 199.968C553.71 206.294 553.525 216.124 553.4 222.615C554.88 223.451 555.395 223.349 557.07 223.421C569.04 223.657 581.01 223.757 592.98 223.723C597.315 223.72 602.085 223.79 606.355 223.715C625.195 223.382 625.69 229.157 625.865 246.064L625.25 246.335L625 245.958C623.31 243.416 619.545 238.701 616.59 238.356C609.04 237.472 599.855 238.006 592.145 238.052L551.01 238.012L462.269 238.005C446.726 238.003 425.57 237.412 410.583 238.602C404.023 243.02 405.878 243.465 402.453 248.548C402.075 242.542 401.221 232.708 405.376 227.887C410.523 221.915 423.318 223.979 431.095 223.839C445.814 223.575 460.696 224.356 475.505 223.439C474.407 220.002 474.545 203.481 475.181 199.485Z" fill="#F4DC99"/>
<path d="M475.18 199.485C490.838 198.348 509.685 199.461 525.635 199.038C529.485 198.936 550.27 198.882 553.05 199.359L553.11 199.968C553.71 206.294 553.525 216.124 553.4 222.615C554.88 223.451 555.395 223.349 557.07 223.421C550.11 223.946 536.385 223.539 528.805 223.537L475.505 223.439C474.406 220.002 474.545 203.481 475.18 199.485Z" fill="#71706F"/>
<path d="M509.975 256.457C531.22 254.134 550.35 269.422 552.765 290.658C555.185 311.894 539.985 331.091 518.76 333.604C497.399 336.133 478.054 320.814 475.62 299.443C473.186 278.072 488.592 258.795 509.975 256.457Z" fill="#464544"/>
<path d="M506.145 265.871C508.67 263.676 514.715 263.896 517.98 264.31C545.965 267.861 554.78 301.903 533.355 319.172C527.01 324.292 518.875 326.641 510.775 325.687C502.205 324.724 494.398 320.288 489.184 313.413C483.551 306.067 482.218 297.151 483.747 288.282C484.175 285.803 484.685 284.874 486.846 283.673C487.141 282.573 487.523 281.167 487.885 280.206C490.673 272.814 498.453 268.336 505.625 266.12C505.8 266.037 505.975 265.954 506.145 265.871Z" fill="#71706F"/>
<path d="M506.145 265.872C509.24 267.363 511.095 266.67 514.295 267.845C514.545 270.423 504.265 274.762 501.62 276.213C496.868 278.823 492.275 290.196 488.671 291.032C486.586 289.475 486.913 286.091 486.847 283.673C487.142 282.574 487.524 281.167 487.886 280.207C490.673 272.815 498.454 268.337 505.625 266.12C505.8 266.037 505.975 265.954 506.145 265.872Z" fill="#BEBCBD"/>
<path d="M565.525 43.0538C571.865 43.0402 585.09 41.5311 589.885 46.0875C590.7 46.8597 590.96 53.1629 591.005 54.5064C591.08 80.7259 591.03 107.039 591.05 133.258L591.065 167.362C591.065 175.111 591.66 189.316 589.8 196.185C585.49 200.443 569.9 199.464 563.485 199.399C562.365 199.383 561.24 199.325 560.12 199.225C557.455 199.429 555.675 199.418 553.05 199.359C550.27 198.882 529.485 198.936 525.635 199.038C509.685 199.461 490.838 198.348 475.18 199.485C470.116 199.402 465.053 199.258 459.992 199.051C454.753 199.047 441.33 200.334 438.937 196.35C436.101 191.629 437.066 170.2 437.074 164.828L437.105 121.76L437.091 75.7989C437.087 66.9679 436.853 56.8499 437.349 48.1158C442.509 40.6479 451.187 43.0681 459.591 43.0881C493.189 44.089 531.695 43.2937 565.525 43.0538Z" fill="#DBA44C"/>
<path d="M565.525 43.054C571.865 43.0404 585.09 41.5313 589.885 46.0877C590.7 46.8599 590.96 53.1631 591.005 54.5066C591.08 80.7261 591.03 107.039 591.05 133.259L591.065 167.362C591.065 175.111 591.66 189.317 589.8 196.186C585.49 200.444 569.9 199.465 563.485 199.399C562.365 199.383 561.24 199.325 560.12 199.226C561.7 198.529 563.61 198.832 565.485 198.872C565.75 184.83 566.19 44.517 565.525 43.054Z" fill="#B88536"/>
<path d="M437.349 48.1158C442.509 40.6479 451.187 43.0681 459.591 43.0881C460.871 45.6044 460.027 184.614 459.992 199.051C454.753 199.047 441.33 200.334 438.937 196.35C436.101 191.629 437.066 170.2 437.074 164.828L437.105 121.76L437.091 75.7989C437.087 66.9679 436.853 56.8499 437.349 48.1158Z" fill="#F4DC99"/>
</svg>
